<?xml version="1.0" standalone="yes"?>
<svg xmlns="http://www.w3.org/2000/svg" width="1000" height="1000">
<path style="fill:#011fff; stroke:none;" d="M0 0L0 1000L1000 1000L1000 0L0 0z"/>
<path style="fill:#ffffff; stroke:none;" d="M180 180L180 399L180 464L180.603 493L192 506L218 532L281 595L315 628L315 316L433 316L433 715C433 724.292 430.38 738.258 433.603 747C435.546 752.268 441.615 756.839 445.285 761C455.51 772.592 466.281 783.827 476.961 795C481.624 799.878 492.974 817.793 500.001 817.793C507.056 817.793 518.5 799.929 523.089 795C533.625 783.686 544.488 772.594 554.714 761C558.385 756.839 564.454 752.268 566.397 747C569.62 738.258 567 724.292 567 715L567 316L685 316L685 628L719 595L782 532L808 506L819.397 493L820 464L820 399L820 180L180 180z"/>
<path style="fill:#adb7ff; stroke:none;" d="M315 316L315 629L316 629L316 408L316 344L315 316M432 316L432 747L433 747L433 442L433 354C433 343.104 436.208 326.028 432 316M567 316L567 747L568 747L568 442L568 354C568 343.104 571.208 326.027 567 316M684 316L684 629L685 629L685 408L685 344L684 316z"/>
<path style="fill:#7b8bff; stroke:none;" d="M180 494L181 495L180 494M819 494L820 495L819 494M181 495L182 496L181 495M818 495L819 496L818 495M182 496L183 497L182 496M817 496L818 497L817 496M183 497L184 498L183 497M816 497L817 498L816 497M184 498L185 499L184 498M815 498L816 499L815 498M185 499L186 500L185 499M814 499L815 500L814 499M186 500L187 501L186 500M813 500L814 501L813 500M187 501L188 502L187 501M812 501L813 502L812 501M188 502L189 503L188 502M811 502L812 503L811 502M189 503L190 504L189 503M810 503L811 504L810 503M190 504L191 505L190 504M809 504L810 505L809 504M191 505L192 506L191 505M808 505L809 506L808 505M192 506L193 507L192 506M807 506L808 507L807 506M193 507L194 508L193 507M806 507L807 508L806 507M194 508L195 509L194 508M805 508L806 509L805 508M195 509L196 510L195 509M804 509L805 510L804 509M196 510L197 511L196 510M803 510L804 511L803 510M197 511L198 512L197 511M802 511L803 512L802 511M198 512L199 513L198 512M801 512L802 513L801 512M199 513L200 514L199 513M800 513L801 514L800 513M200 514L201 515L200 514M799 514L800 515L799 514M201 515L202 516L201 515M798 515L799 516L798 515M202 516L203 517L202 516M797 516L798 517L797 516M203 517L204 518L203 517M796 517L797 518L796 517M204 518L205 519L204 518M795 518L796 519L795 518M205 519L206 520L205 519M794 519L795 520L794 519M206 520L207 521L206 520M793 520L794 521L793 520M207 521L208 522L207 521M792 521L793 522L792 521M208 522L209 523L208 522M791 522L792 523L791 522M209 523L210 524L209 523M790 523L791 524L790 523M210 524L211 525L210 524M789 524L790 525L789 524M211 525L212 526L211 525M788 525L789 526L788 525M212 526L213 527L212 526M787 526L788 527L787 526M213 527L214 528L213 527M786 527L787 528L786 527M214 528L215 529L214 528M785 528L786 529L785 528M215 529L216 530L215 529M784 529L785 530L784 529M216 530L217 531L216 530M783 530L784 531L783 530M217 531L218 532L217 531M782 531L783 532L782 531M218 532L219 533L218 532M781 532L782 533L781 532M219 533L220 534L219 533M780 533L781 534L780 533M220 534L221 535L220 534M779 534L780 535L779 534M221 535L222 536L221 535M778 535L779 536L778 535M222 536L223 537L222 536M777 536L778 537L777 536M223 537L224 538L223 537M776 537L777 538L776 537M224 538L225 539L224 538M775 538L776 539L775 538M225 539L226 540L225 539M774 539L775 540L774 539M226 540L227 541L226 540M773 540L774 541L773 540M227 541L228 542L227 541M772 541L773 542L772 541M228 542L229 543L228 542M771 542L772 543L771 542M229 543L230 544L229 543M770 543L771 544L770 543M230 544L231 545L230 544M769 544L770 545L769 544M231 545L232 546L231 545M768 545L769 546L768 545M232 546L233 547L232 546M767 546L768 547L767 546M233 547L234 548L233 547M766 547L767 548L766 547M234 548L235 549L234 548M765 548L766 549L765 548M235 549L236 550L235 549M764 549L765 550L764 549M236 550L237 551L236 550M763 550L764 551L763 550M237 551L238 552L237 551M762 551L763 552L762 551M238 552L239 553L238 552M761 552L762 553L761 552M239 553L240 554L239 553M760 553L761 554L760 553M240 554L241 555L240 554M759 554L760 555L759 554M241 555L242 556L241 555M758 555L759 556L758 555M242 556L243 557L242 556M757 556L758 557L757 556M243 557L244 558L243 557M756 557L757 558L756 557M244 558L245 559L244 558M755 558L756 559L755 558M245 559L246 560L245 559M754 559L755 560L754 559M246 560L247 561L246 560M753 560L754 561L753 560M247 561L248 562L247 561M752 561L753 562L752 561M248 562L249 563L248 562M751 562L752 563L751 562M249 563L250 564L249 563M750 563L751 564L750 563M250 564L251 565L250 564M749 564L750 565L749 564M251 565L252 566L251 565M748 565L749 566L748 565M252 566L253 567L252 566M747 566L748 567L747 566M253 567L254 568L253 567M746 567L747 568L746 567M254 568L255 569L254 568M745 568L746 569L745 568M255 569L256 570L255 569M744 569L745 570L744 569M256 570L257 571L256 570M743 570L744 571L743 570M257 571L258 572L257 571M742 571L743 572L742 571M258 572L259 573L258 572M741 572L742 573L741 572M259 573L260 574L259 573M740 573L741 574L740 573M260 574L261 575L260 574M739 574L740 575L739 574M261 575L262 576L261 575M738 575L739 576L738 575M262 576L263 577L262 576M737 576L738 577L737 576M263 577L264 578L263 577M736 577L737 578L736 577M264 578L265 579L264 578M735 578L736 579L735 578M265 579L266 580L265 579M734 579L735 580L734 579M266 580L267 581L266 580M733 580L734 581L733 580M267 581L268 582L267 581M732 581L733 582L732 581M268 582L269 583L268 582M731 582L732 583L731 582M269 583L270 584L269 583M730 583L731 584L730 583M270 584L271 585L270 584M729 584L730 585L729 584M271 585L272 586L271 585M728 585L729 586L728 585M272 586L273 587L272 586M727 586L728 587L727 586M273 587L274 588L273 587M726 587L727 588L726 587M274 588L275 589L274 588M725 588L726 589L725 588M275 589L276 590L275 589M724 589L725 590L724 589M276 590L277 591L276 590M723 590L724 591L723 590M277 591L278 592L277 591M722 591L723 592L722 591M278 592L279 593L278 592M721 592L722 593L721 592M279 593L280 594L279 593M720 593L721 594L720 593M280 594L281 595L280 594M719 594L720 595L719 594M281 595L282 596L281 595M718 595L719 596L718 595M282 596L283 597L282 596M717 596L718 597L717 596M283 597L284 598L283 597M716 597L717 598L716 597M284 598L285 599L284 598M715 598L716 599L715 598M285 599L286 600L285 599M714 599L715 600L714 599M286 600L287 601L286 600M713 600L714 601L713 600M287 601L288 602L287 601M712 601L713 602L712 601M288 602L289 603L288 602M711 602L712 603L711 602M289 603L290 604L289 603M710 603L711 604L710 603M290 604L291 605L290 604M709 604L710 605L709 604M291 605L292 606L291 605M708 605L709 606L708 605M292 606L293 607L292 606M707 606L708 607L707 606M293 607L294 608L293 607M706 607L707 608L706 607M294 608L295 609L294 608M705 608L706 609L705 608M295 609L296 610L295 609M704 609L705 610L704 609M296 610L297 611L296 610M703 610L704 611L703 610M297 611L298 612L297 611M702 611L703 612L702 611M298 612L299 613L298 612M701 612L702 613L701 612M299 613L300 614L299 613M700 613L701 614L700 613M300 614L301 615L300 614M699 614L700 615L699 614M301 615L302 616L301 615M698 615L699 616L698 615M302 616L303 617L302 616M697 616L698 617L697 616M303 617L304 618L303 617M696 617L697 618L696 617M304 618L305 619L304 618M695 618L696 619L695 618M305 619L306 620L305 619M694 619L695 620L694 619M306 620L307 621L306 620M693 620L694 621L693 620M307 621L308 622L307 621M692 621L693 622L692 621M308 622L309 623L308 622M691 622L692 623L691 622M309 623L310 624L309 623M690 623L691 624L690 623M310 624L311 625L310 624M689 624L690 625L689 624M311 625L312 626L311 625M688 625L689 626L688 625M312 626L313 627L312 626M687 626L688 627L687 626M313 627L314 628L313 627M686 627L687 628L686 627M314 628L315 629L314 628M685 628L686 629L685 628z"/>
<path style="fill:#2942ff; stroke:none;" d="M315 629L316 630L315 629M684 629L685 630L684 629M432 747L433 748L432 747M567 747L568 748L567 747M433 748L434 749L433 748M566 748L567 749L566 748M434 749L435 750L434 749M565 749L566 750L565 749M435 750L436 751L435 750M564 750L565 751L564 750z"/>
<path style="fill:#7b8bff; stroke:none;" d="M436 751L437 752L436 751M563 751L564 752L563 751M437 752L438 753L437 752M562 752L563 753L562 752M438 753L439 754L438 753M561 753L562 754L561 753M439 754L440 755L439 754M560 754L561 755L560 754M440 755L441 756L440 755M559 755L560 756L559 755z"/>
<path style="fill:#adb7ff; stroke:none;" d="M441 756L442 757L441 756M558 756L559 757L558 756M442 757L443 758L442 757M557 757L558 758L557 757M443 758L444 759L443 758M556 758L557 759L556 758z"/>
<path style="fill:#2942ff; stroke:none;" d="M443 759L444 760L443 759M556 759L557 760L556 759M444 760L445 761L444 760M555 760L556 761L555 760M445 761L446 762L445 761M554 761L555 762L554 761M446 762L447 763L446 762M553 762L554 763L553 762M447 763L448 764L447 763M552 763L553 764L552 763z"/>
<path style="fill:#7b8bff; stroke:none;" d="M448 764L449 765L448 764M551 764L552 765L551 764M449 765L450 766L449 765M550 765L551 766L550 765M450 766L451 767L450 766M549 766L550 767L549 766M451 767L452 768L451 767M548 767L549 768L548 767M452 768L453 769L452 768M547 768L548 769L547 768z"/>
<path style="fill:#adb7ff; stroke:none;" d="M453 769L454 770L453 769M546 769L547 770L546 769M454 770L455 771L454 770M545 770L546 771L545 770M455 771L456 772L455 771M544 771L545 772L544 771z"/>
<path style="fill:#2942ff; stroke:none;" d="M544 772L545 773L544 772M456 773L457 774L456 773M543 773L544 774L543 773M457 774L458 775L457 774M542 774L543 775L542 774M458 775L459 776L458 775M541 775L542 776L541 775M459 776L460 777L459 776M540 776L541 777L540 776z"/>
<path style="fill:#7b8bff; stroke:none;" d="M460 777L461 778L460 777z"/>
<path style="fill:#2942ff; stroke:none;" d="M539 777L540 778L539 777z"/>
<path style="fill:#7b8bff; stroke:none;" d="M461 778L462 779L461 778M538 778L539 779L538 778M462 779L463 780L462 779M537 779L538 780L537 779M463 780L464 781L463 780M536 780L537 781L536 780M464 781L465 782L464 781M535 781L536 782L535 781z"/>
<path style="fill:#adb7ff; stroke:none;" d="M465 782L466 783L465 782M534 782L535 783L534 782M466 783L467 784L466 783M533 783L534 784L533 783M467 784L468 785L467 784M532 784L533 785L532 784z"/>
<path style="fill:#2942ff; stroke:none;" d="M468 786L469 787L468 786M531 786L532 787L531 786M469 787L470 788L469 787M530 787L531 788L530 787M470 788L471 789L470 788M529 788L530 789L529 788M471 789L472 790L471 789M528 789L529 790L528 789M472 790L473 791L472 790M527 790L528 791L527 790z"/>
<path style="fill:#7b8bff; stroke:none;" d="M473 791L474 792L473 791M526 791L527 792L526 791M474 792L475 793L474 792M525 792L526 793L525 792M475 793L476 794L475 793M524 793L525 794L524 793M476 794L477 795L476 794M523 794L524 795L523 794z"/>
<path style="fill:#adb7ff; stroke:none;" d="M477 795L478 796L477 795z"/>
<path style="fill:#7b8bff; stroke:none;" d="M522 795L523 796L522 795z"/>
<path style="fill:#adb7ff; stroke:none;" d="M478 796L479 797L478 796M521 796L522 797L521 796M479 797L480 798L479 797M520 797L521 798L520 797M480 798L481 799L480 798z"/>
<path style="fill:#2942ff; stroke:none;" d="M480 799L481 800L480 799M519 799L520 800L519 799M481 800L482 801L481 800M518 800L519 801L518 800M482 801L483 802L482 801M517 801L518 802L517 801M483 802L484 803L483 802M516 802L517 803L516 802M484 803L485 804L484 803M515 803L516 804L515 803z"/>
<path style="fill:#7b8bff; stroke:none;" d="M485 804L486 805L485 804M514 804L515 805L514 804M486 805L487 806L486 805M513 805L514 806L513 805M487 806L488 807L487 806M512 806L513 807L512 806M488 807L489 808L488 807M511 807L512 808L511 807M489 808L490 809L489 808M510 808L511 809L510 808z"/>
<path style="fill:#adb7ff; stroke:none;" d="M490 809L491 810L490 809M509 809L510 810L509 809M491 810L492 811L491 810M508 810L509 811L508 810M492 811L493 812L492 811z"/>
<path style="fill:#2942ff; stroke:none;" d="M492 812L493 813L492 812M507 812L508 813L507 812M493 813L494 814L493 813M506 813L507 814L506 813M494 814L495 815L494 814M505 814L506 815L505 814M495 815L496 816L495 815M504 815L505 816L504 815M496 816L497 817L496 816M503 816L504 817L503 816z"/>
<path style="fill:#7b8bff; stroke:none;" d="M497 817L498 818L497 817M502 817L503 818L502 817M498 818L499 819L498 818M501 818L502 819L501 818M499.667 819.333L500.333 819.667L499.667 819.333z"/>
</svg>
